<svg width="23" height="18" viewBox="0 0 23 18" fill="none" xmlns="http://www.w3.org/2000/svg">
<path d="M0 2.25C0 1.65326 0.237053 1.08097 0.65901 0.65901C1.08097 0.237053 1.65326 0 2.25 0H20.25C20.8467 0 21.419 0.237053 21.841 0.65901C22.2629 1.08097 22.5 1.65326 22.5 2.25V15.75C22.5 16.3467 22.2629 16.919 21.841 17.341C21.419 17.7629 20.8467 18 20.25 18H2.25C1.65326 18 1.08097 17.7629 0.65901 17.341C0.237053 16.919 0 16.3467 0 15.75V2.25ZM3.95888 2.25L11.25 8.62987L18.5411 2.25H3.96H3.95888ZM20.25 3.74513L11.9914 10.9721C11.7862 11.1519 11.5228 11.251 11.25 11.251C10.9772 11.251 10.7138 11.1519 10.5086 10.9721L2.25 3.74513V15.75H20.25V3.74513Z" fill="#F21732"/>
</svg>
