<svg width="695" height="601" viewBox="0 0 695 601" fill="none" xmlns="http://www.w3.org/2000/svg">
<path opacity="0.1" d="M654.381 279.063C630.807 309.037 639.964 352.828 654.944 387.892C659.967 399.635 665.634 412.029 663.523 424.623C660.937 440.018 647.224 451.294 632.763 457.221C606.463 468.096 574.977 465.503 550.818 450.471C529.934 437.477 514.976 416.348 493.736 403.947C458.176 383.203 412.94 391.034 374.342 405.324C347.034 415.437 317.178 428.594 290.041 418.023C270.95 410.614 257.748 392.486 250.554 373.298C247.08 364.03 244.561 354.036 237.96 346.627C234.019 342.264 228.877 339.16 223.602 336.552C175.447 312.689 114.698 325.439 67.9658 299.006C36.3985 281.137 16.1882 247.421 7.21662 212.268C-1.755 177.115 -0.688191 140.251 1.5862 104.053C3.20124 78.3237 6.09794 50.8606 22.5373 30.9986C39.9175 10.0772 69.7661 2.26868 96.7772 6.26183C123.788 10.255 148.207 24.4866 169.713 41.2444C196.599 62.1881 221.528 88.2732 254.54 96.7633C277.017 102.542 300.665 99.3784 323.853 98.2894C362.614 96.4595 401.383 100.512 439.929 104.957C476.83 109.224 514.013 113.921 549.151 125.923C574.029 134.42 593.972 149.837 617.465 160.609C632.778 167.632 649.476 169.573 663.967 178.515C681.829 189.532 698.194 208.697 693.601 231.115C689.238 252.459 666.901 263.12 654.381 279.063Z" fill="#F21732"/>
<path opacity="0.1" d="M54.7766 524.339C60.0515 527.058 65.5782 529.407 71.0308 531.748C91.1745 540.253 111.622 548.832 133.262 551.751C173.876 557.226 215.822 542.401 255.747 551.625C289.196 559.344 316.859 582.999 349.538 593.534C364.733 598.431 380.543 600.35 396.493 600.35H398.553C400.529 600.325 402.489 600.276 404.435 600.202C420.608 599.594 436.847 597.201 452.702 594.142C502.761 584.511 553.709 566.856 591.981 534.356C480.572 513.96 251.02 482.711 54.7766 524.339Z" fill="#F21732"/>
<path d="M82.0697 522.156C82.0697 522.156 100.346 460.103 78.6396 414.43C69.5271 395.264 66.5045 373.743 70.7125 352.94C72.7247 343.063 75.6385 333.391 79.4175 324.047" stroke="#535461" stroke-width="2" stroke-miterlimit="10"/>
<path d="M65.9153 295.222C65.9153 302.83 79.6877 324.856 79.6877 324.856C79.6877 324.856 93.46 302.801 93.46 295.222C93.3766 291.626 91.8893 288.205 89.3163 285.691C86.7433 283.177 83.2887 281.769 79.6914 281.769C76.094 281.769 72.6394 283.177 70.0664 285.691C67.4934 288.205 66.0061 291.626 65.9227 295.222H65.9153Z" fill="#F21732"/>
<path d="M43.1575 337.354C47.2914 343.74 70.8354 354.763 70.8354 354.763C70.8354 354.763 70.4057 328.767 66.2718 322.381C65.3121 320.814 64.0485 319.455 62.5554 318.383C61.0622 317.312 59.3698 316.55 57.5777 316.143C55.7857 315.736 53.9302 315.692 52.1208 316.013C50.3113 316.334 48.5844 317.014 47.0418 318.013C45.4992 319.011 44.172 320.309 43.1385 321.828C42.1051 323.348 41.3862 325.059 41.0242 326.861C40.6622 328.662 40.6645 330.518 41.0309 332.319C41.3973 334.12 42.1203 335.829 43.1575 337.346V337.354Z" fill="#F21732"/>
<path d="M44.1756 409.337C50.9692 412.76 76.8544 410.397 76.8544 410.397C76.8544 410.397 63.3636 388.171 56.57 384.749C54.9502 383.88 53.173 383.345 51.3431 383.174C49.5131 383.003 47.6675 383.2 45.9149 383.753C44.1622 384.307 42.5381 385.205 41.1382 386.396C39.7383 387.587 38.5909 389.046 37.7636 390.687C36.9363 392.328 36.4459 394.118 36.3213 395.952C36.1966 397.786 36.4402 399.626 37.0378 401.364C37.6353 403.102 38.5747 404.703 39.8006 406.072C41.0265 407.442 42.514 408.552 44.1756 409.337Z" fill="#F21732"/>
<path d="M57.1692 463.639C63.2812 468.158 89.2036 470.203 89.2036 470.203C89.2036 470.203 79.6614 446.022 73.5494 441.495C70.611 439.358 66.9469 438.468 63.3555 439.02C59.7641 439.572 56.5363 441.521 54.3754 444.442C52.2145 447.363 51.2956 451.02 51.8189 454.616C52.3422 458.211 54.2653 461.455 57.1692 463.639Z" fill="#F21732"/>
<path d="M99.7355 356.239C94.2829 361.536 68.8645 367.025 68.8645 367.025C68.8645 367.025 75.0876 341.785 80.5402 336.48C83.1603 333.935 86.6843 332.534 90.3369 332.587C93.9895 332.64 97.4716 334.142 100.017 336.762C102.562 339.382 103.963 342.906 103.91 346.558C103.857 350.211 102.356 353.693 99.7355 356.239Z" fill="#F21732"/>
<path d="M114.164 419.934C107.371 423.357 81.4854 420.993 81.4854 420.993C81.4854 420.993 94.9762 398.768 101.77 395.345C105.02 393.786 108.753 393.564 112.165 394.726C115.578 395.888 118.399 398.342 120.022 401.561C121.646 404.78 121.943 408.507 120.849 411.942C119.755 415.378 117.357 418.247 114.172 419.934H114.164Z" fill="#F21732"/>
<path d="M119.686 483.753C113.574 488.272 87.6519 490.316 87.6519 490.316C87.6519 490.316 97.194 466.135 103.306 461.609C106.244 459.471 109.909 458.582 113.5 459.134C117.091 459.686 120.319 461.635 122.48 464.556C124.641 467.477 125.56 471.134 125.037 474.73C124.513 478.325 122.59 481.568 119.686 483.753Z" fill="#F21732"/>
<path opacity="0.25" d="M65.9153 295.222C65.9153 302.83 79.6877 324.856 79.6877 324.856C79.6877 324.856 93.46 302.801 93.46 295.222C93.3766 291.626 91.8893 288.205 89.3163 285.691C86.7433 283.177 83.2887 281.769 79.6914 281.769C76.094 281.769 72.6394 283.177 70.0664 285.691C67.4934 288.205 66.0061 291.626 65.9227 295.222H65.9153Z" fill="black"/>
<path opacity="0.25" d="M43.1575 337.354C47.2914 343.74 70.8354 354.763 70.8354 354.763C70.8354 354.763 70.4057 328.767 66.2718 322.381C65.3121 320.814 64.0485 319.455 62.5554 318.383C61.0622 317.312 59.3698 316.55 57.5777 316.143C55.7857 315.736 53.9302 315.692 52.1208 316.013C50.3113 316.334 48.5844 317.014 47.0418 318.013C45.4992 319.011 44.172 320.309 43.1385 321.828C42.1051 323.348 41.3862 325.059 41.0242 326.861C40.6622 328.662 40.6645 330.518 41.0309 332.319C41.3973 334.12 42.1203 335.829 43.1575 337.346V337.354Z" fill="black"/>
<path opacity="0.25" d="M44.1756 409.337C50.9692 412.76 76.8544 410.397 76.8544 410.397C76.8544 410.397 63.3636 388.171 56.57 384.749C54.9502 383.88 53.173 383.345 51.3431 383.174C49.5131 383.003 47.6675 383.2 45.9149 383.753C44.1622 384.307 42.5381 385.205 41.1382 386.396C39.7383 387.587 38.5909 389.046 37.7636 390.687C36.9363 392.328 36.4459 394.118 36.3213 395.952C36.1966 397.786 36.4402 399.626 37.0378 401.364C37.6353 403.102 38.5747 404.703 39.8006 406.072C41.0265 407.442 42.514 408.552 44.1756 409.337Z" fill="black"/>
<path opacity="0.25" d="M57.1692 463.639C63.2812 468.158 89.2036 470.203 89.2036 470.203C89.2036 470.203 79.6614 446.022 73.5494 441.495C70.611 439.358 66.9469 438.468 63.3555 439.02C59.7641 439.572 56.5363 441.521 54.3754 444.442C52.2145 447.363 51.2956 451.02 51.8189 454.616C52.3422 458.211 54.2653 461.455 57.1692 463.639Z" fill="black"/>
<path opacity="0.25" d="M99.7355 356.239C94.2829 361.536 68.8645 367.025 68.8645 367.025C68.8645 367.025 75.0876 341.785 80.5402 336.48C83.1603 333.935 86.6843 332.534 90.3369 332.587C93.9895 332.64 97.4716 334.142 100.017 336.762C102.562 339.382 103.963 342.906 103.91 346.558C103.857 350.211 102.356 353.693 99.7355 356.239Z" fill="black"/>
<path opacity="0.25" d="M114.164 419.934C107.371 423.357 81.4854 420.993 81.4854 420.993C81.4854 420.993 94.9762 398.768 101.77 395.345C105.02 393.786 108.753 393.564 112.165 394.726C115.578 395.888 118.399 398.342 120.022 401.561C121.646 404.78 121.943 408.507 120.849 411.942C119.755 415.378 117.357 418.247 114.172 419.934H114.164Z" fill="black"/>
<path opacity="0.25" d="M119.686 483.753C113.574 488.272 87.6519 490.316 87.6519 490.316C87.6519 490.316 97.194 466.135 103.306 461.609C106.244 459.471 109.909 458.582 113.5 459.134C117.091 459.686 120.319 461.635 122.48 464.556C124.641 467.477 125.56 471.134 125.037 474.73C124.513 478.325 122.59 481.568 119.686 483.753Z" fill="black"/>
<path d="M176.36 503.262C176.36 503.262 186.257 469.665 174.508 444.942C169.514 434.603 168.009 422.924 170.218 411.656C171.308 406.315 172.885 401.085 174.93 396.032" stroke="#535461" stroke-width="2" stroke-miterlimit="10"/>
<path d="M167.617 380.4C167.617 384.519 175.07 396.454 175.07 396.454C175.07 396.454 182.523 384.511 182.523 380.4C182.523 378.422 181.737 376.525 180.339 375.127C178.94 373.729 177.044 372.943 175.066 372.943C173.088 372.943 171.192 373.729 169.793 375.127C168.395 376.525 167.609 378.422 167.609 380.4H167.617Z" fill="#F21732"/>
<path d="M155.315 403.201C157.537 406.653 170.302 412.624 170.302 412.624C170.302 412.624 170.072 398.548 167.835 395.096C167.303 394.274 166.614 393.564 165.808 393.009C165.001 392.453 164.094 392.061 163.136 391.856C162.178 391.651 161.19 391.637 160.227 391.814C159.264 391.991 158.345 392.356 157.523 392.888C156.7 393.42 155.991 394.109 155.435 394.915C154.88 395.722 154.488 396.629 154.283 397.587C154.078 398.545 154.064 399.533 154.241 400.496C154.418 401.46 154.783 402.379 155.315 403.201Z" fill="#F21732"/>
<path d="M155.852 442.183C159.557 444.035 173.544 442.753 173.544 442.753C173.544 442.753 166.239 430.722 162.565 428.87C161.689 428.429 160.735 428.165 159.757 428.093C158.78 428.021 157.798 428.142 156.867 428.449C155.936 428.757 155.075 429.245 154.333 429.885C153.59 430.525 152.982 431.306 152.541 432.181C152.1 433.057 151.836 434.011 151.764 434.988C151.692 435.966 151.813 436.948 152.121 437.879C152.428 438.81 152.916 439.671 153.556 440.413C154.197 441.155 154.977 441.764 155.852 442.205V442.183Z" fill="#F21732"/>
<path d="M162.882 471.576C166.194 474.021 180.226 475.132 180.226 475.132C180.226 475.132 175.04 462.042 171.75 459.575C170.963 458.991 170.069 458.568 169.118 458.33C168.168 458.092 167.18 458.043 166.21 458.187C165.241 458.331 164.31 458.664 163.469 459.168C162.629 459.671 161.895 460.336 161.312 461.123C160.728 461.91 160.305 462.804 160.067 463.755C159.829 464.705 159.78 465.694 159.924 466.663C160.068 467.632 160.401 468.564 160.905 469.404C161.409 470.245 162.073 470.978 162.86 471.561L162.882 471.576Z" fill="#F21732"/>
<path d="M185.938 413.428C182.974 416.295 169.224 419.265 169.224 419.265C169.224 419.265 172.595 405.597 175.544 402.73C176.239 402.017 177.071 401.452 177.989 401.066C178.907 400.68 179.893 400.482 180.889 400.484C181.885 400.486 182.87 400.687 183.787 401.077C184.704 401.466 185.533 402.034 186.226 402.749C186.92 403.464 187.462 404.311 187.823 405.239C188.183 406.168 188.354 407.159 188.325 408.154C188.296 409.149 188.068 410.129 187.654 411.035C187.24 411.94 186.649 412.754 185.915 413.428H185.938Z" fill="#F21732"/>
<path d="M193.754 447.913C190.05 449.765 176.063 448.483 176.063 448.483C176.063 448.483 183.367 436.452 187.042 434.6C187.918 434.159 188.872 433.895 189.849 433.823C190.827 433.751 191.809 433.872 192.74 434.179C193.671 434.487 194.532 434.975 195.274 435.615C196.016 436.255 196.625 437.036 197.066 437.911C197.506 438.787 197.77 439.741 197.842 440.718C197.915 441.696 197.793 442.678 197.486 443.609C197.178 444.54 196.691 445.401 196.05 446.143C195.41 446.885 194.63 447.494 193.754 447.935V447.913Z" fill="#F21732"/>
<path d="M196.74 482.464C193.429 484.908 179.397 486.02 179.397 486.02C179.397 486.02 184.583 472.929 187.872 470.462C189.462 469.283 191.455 468.784 193.412 469.074C195.37 469.365 197.132 470.421 198.311 472.01C199.49 473.6 199.989 475.593 199.699 477.55C199.408 479.508 198.352 481.27 196.763 482.449L196.74 482.464Z" fill="#F21732"/>
<path opacity="0.5" d="M167.617 380.4C167.617 384.519 175.07 396.454 175.07 396.454C175.07 396.454 182.523 384.511 182.523 380.4C182.523 378.422 181.737 376.525 180.339 375.127C178.94 373.729 177.044 372.943 175.066 372.943C173.088 372.943 171.192 373.729 169.793 375.127C168.395 376.525 167.609 378.422 167.609 380.4H167.617Z" fill="white"/>
<path opacity="0.5" d="M155.315 403.201C157.537 406.653 170.302 412.624 170.302 412.624C170.302 412.624 170.072 398.548 167.835 395.096C167.303 394.274 166.614 393.564 165.808 393.009C165.001 392.453 164.094 392.061 163.136 391.856C162.178 391.651 161.19 391.637 160.227 391.814C159.264 391.991 158.345 392.356 157.523 392.888C156.7 393.42 155.991 394.109 155.435 394.915C154.88 395.722 154.488 396.629 154.283 397.587C154.078 398.545 154.064 399.533 154.241 400.496C154.418 401.46 154.783 402.379 155.315 403.201Z" fill="white"/>
<path opacity="0.5" d="M155.852 442.183C159.557 444.035 173.544 442.753 173.544 442.753C173.544 442.753 166.239 430.722 162.565 428.87C161.689 428.429 160.735 428.165 159.757 428.093C158.78 428.021 157.798 428.142 156.867 428.449C155.936 428.757 155.075 429.245 154.333 429.885C153.59 430.525 152.982 431.306 152.541 432.181C152.1 433.057 151.836 434.011 151.764 434.988C151.692 435.966 151.813 436.948 152.121 437.879C152.428 438.81 152.916 439.671 153.556 440.413C154.197 441.155 154.977 441.764 155.852 442.205V442.183Z" fill="white"/>
<path opacity="0.5" d="M162.882 471.576C166.194 474.021 180.226 475.132 180.226 475.132C180.226 475.132 175.04 462.042 171.75 459.575C170.963 458.991 170.069 458.568 169.118 458.33C168.168 458.092 167.18 458.043 166.21 458.187C165.241 458.331 164.31 458.664 163.469 459.168C162.629 459.671 161.895 460.336 161.312 461.123C160.728 461.91 160.305 462.804 160.067 463.755C159.829 464.705 159.78 465.694 159.924 466.663C160.068 467.632 160.401 468.564 160.905 469.404C161.409 470.245 162.073 470.978 162.86 471.561L162.882 471.576Z" fill="white"/>
<path opacity="0.5" d="M185.938 413.428C182.974 416.295 169.224 419.265 169.224 419.265C169.224 419.265 172.595 405.597 175.544 402.73C176.239 402.017 177.071 401.452 177.989 401.066C178.907 400.68 179.893 400.482 180.889 400.484C181.885 400.486 182.87 400.687 183.787 401.077C184.704 401.466 185.533 402.034 186.226 402.749C186.92 403.464 187.462 404.311 187.823 405.239C188.183 406.168 188.354 407.159 188.325 408.154C188.296 409.149 188.068 410.129 187.654 411.035C187.24 411.94 186.649 412.754 185.915 413.428H185.938Z" fill="white"/>
<path opacity="0.5" d="M193.754 447.913C190.05 449.765 176.063 448.483 176.063 448.483C176.063 448.483 183.367 436.452 187.042 434.6C187.918 434.159 188.872 433.895 189.849 433.823C190.827 433.751 191.809 433.872 192.74 434.179C193.671 434.487 194.532 434.975 195.274 435.615C196.016 436.255 196.625 437.036 197.066 437.911C197.506 438.787 197.77 439.741 197.842 440.718C197.915 441.696 197.793 442.678 197.486 443.609C197.178 444.54 196.691 445.401 196.05 446.143C195.41 446.885 194.63 447.494 193.754 447.935V447.913Z" fill="white"/>
<path opacity="0.5" d="M196.74 482.464C193.429 484.908 179.397 486.02 179.397 486.02C179.397 486.02 184.583 472.929 187.872 470.462C189.462 469.283 191.455 468.784 193.412 469.074C195.37 469.365 197.132 470.421 198.311 472.01C199.49 473.6 199.989 475.593 199.699 477.55C199.408 479.508 198.352 481.27 196.763 482.449L196.74 482.464Z" fill="white"/>
<g opacity="0.6">
<path opacity="0.6" d="M155.062 40.2287C153.95 41.1406 153.083 42.315 152.538 43.6459C151.993 44.9768 151.789 46.4223 151.943 47.852C152.958 57.2756 156.01 78.7083 163.618 90.7766C164.068 91.4928 164.537 92.1768 165.026 92.8288H206.15C206.15 92.8288 214.536 61.6318 215.092 47.8817C215.156 46.2959 214.856 44.7165 214.213 43.2651C213.571 41.8137 212.605 40.5291 211.388 39.5101C205.224 34.3909 190.755 23.2115 182.547 23.9524H182.384C182.384 23.9524 179.228 20.4185 155.062 40.2287Z" fill="#D6DBE6"/>
<path opacity="0.05" d="M151.944 47.8707C152.959 57.2943 156.011 78.7271 163.619 90.7956C165.257 91.5365 166.931 92.1958 168.591 92.8478C178.963 96.9002 188.764 99.2932 187.179 92.8478C186.817 91.5738 186.284 90.355 185.593 89.225C176.162 72.8152 180.526 37.0321 182.526 24.0301H182.363C182.363 24.0301 179.237 20.4593 155.07 40.2696C153.96 41.1785 153.093 42.3489 152.548 43.6757C152.002 45.0024 151.794 46.4439 151.944 47.8707Z" fill="black"/>
<path opacity="0.6" d="M164.774 91.7188C164.774 93.5265 166.315 95.1934 168.915 96.5418C170.695 97.4248 172.572 98.0961 174.509 98.5421C178.151 99.3909 181.881 99.8062 185.621 99.7793C190.117 99.8357 194.596 99.2112 198.905 97.9272C200.665 97.4005 202.337 96.6166 203.868 95.6009C205.498 94.4526 206.432 93.1339 206.432 91.7262C206.432 89.6741 204.454 87.8072 201.201 86.3847C200.678 86.1526 200.12 85.9353 199.527 85.7328C195.036 84.2991 190.342 83.6036 185.629 83.6732C179.02 83.6732 173.138 84.866 169.33 86.7255C168.69 87.0348 168.073 87.3914 167.485 87.7923C165.744 88.9481 164.774 90.289 164.774 91.7188Z" fill="#D6DBE6"/>
<path opacity="0.1" d="M164.337 91.7188C164.337 93.5265 165.878 95.1934 168.478 96.5418C170.258 97.4248 172.135 98.0961 174.071 98.5421C177.714 99.3909 181.444 99.8062 185.184 99.7793C189.68 99.8357 194.158 99.2112 198.467 97.9272C200.228 97.4005 201.9 96.6166 203.431 95.6009C205.061 94.4526 205.994 93.1339 205.994 91.7262C205.994 89.6741 204.016 87.8072 200.764 86.3847C200.241 86.1526 199.682 85.9353 199.09 85.7328C194.599 84.2991 189.905 83.6036 185.191 83.6732C178.583 83.6732 172.701 84.866 168.893 86.7255C168.252 87.0348 167.636 87.3914 167.048 87.7923C165.3 88.9481 164.337 90.289 164.337 91.7188Z" fill="black"/>
<path opacity="0.6" d="M189.558 93.9204C190.179 92.7948 190.376 91.484 190.113 90.2255C189.851 88.967 189.147 87.8441 188.128 87.0602C188.128 87.0602 186.705 85.3489 187.58 83.7931C187.58 83.7931 180.312 88.5938 184.016 94.1131L189.558 93.9204Z" fill="#FFD865"/>
<path opacity="0.6" d="M187.783 94.0852C188.062 93.5782 188.151 92.9879 188.033 92.4212C187.914 91.8545 187.597 91.3488 187.138 90.9959C186.969 90.7931 186.857 90.5488 186.814 90.2883C186.771 90.0278 186.799 89.7605 186.894 89.5142C186.894 89.5142 183.619 91.6774 185.294 94.1593L187.783 94.0852Z" fill="#FFD865"/>
<path opacity="0.1" d="M187.783 94.0852C188.062 93.5782 188.151 92.9879 188.033 92.4212C187.914 91.8545 187.597 91.3488 187.138 90.9959C186.969 90.7931 186.857 90.5488 186.814 90.2883C186.771 90.0278 186.799 89.7605 186.894 89.5142C186.894 89.5142 183.619 91.6774 185.294 94.1593L187.783 94.0852Z" fill="black"/>
<path opacity="0.6" d="M168.916 96.5461C170.696 97.4291 172.573 98.1005 174.509 98.5464C180.436 97.1684 197.476 92.7382 201.18 86.3891C200.656 86.157 200.098 85.9397 199.505 85.7372C197.105 88.5154 187.467 98.1389 168.916 96.5461Z" fill="#565387"/>
<path opacity="0.6" d="M167.429 87.7868C169.651 91.7947 190.395 96.2621 198.863 97.929C200.623 97.4023 202.295 96.6184 203.826 95.6027C191.763 95.4455 179.914 92.3968 169.273 86.7125C168.633 87.0242 168.016 87.3833 167.429 87.7868Z" fill="#565387"/>
<path opacity="0.35" d="M193.827 39.9018C195.05 41.102 194.709 43.0875 194.568 44.7914C194.331 47.9791 195.145 51.1567 196.887 53.8371C197.968 55.4892 199.458 57.1783 199.191 59.1341C198.924 61.0899 196.887 62.4012 195.805 64.1274C194.724 65.8535 194.635 68.165 194.953 70.2467C195.272 72.3285 195.916 74.3584 196.079 76.455C196.152 76.9346 196.098 77.4247 195.924 77.8774C195.659 78.3175 195.309 78.7004 194.894 79.0035C194.209 79.6164 193.635 80.3433 193.197 81.1519C192.982 81.6473 192.692 82.1069 192.338 82.5151C192.034 82.7872 191.683 83.0007 191.301 83.1448C188.523 84.3153 185.322 84.1079 182.455 83.1892C179.623 82.1573 176.922 80.7946 174.41 79.1294C173.697 78.7548 173.059 78.2526 172.528 77.6477C171.927 76.7467 171.612 75.6856 171.624 74.6029C171.506 72.284 171.943 69.9504 171.669 67.639C171.394 65.3275 170.32 63.0013 169.661 60.675C168.409 56.2382 168.591 51.5194 170.179 47.1917C170.751 45.3752 171.825 43.7573 173.276 42.5244C176.506 40.0648 181.203 41.0427 184.944 39.4796C187.745 38.2942 191.264 37.3756 193.827 39.9018Z" fill="#FFD865"/>
</g>
<g opacity="0.6">
<path opacity="0.6" d="M91.4769 151.545C90.8333 152.072 90.331 152.751 90.0154 153.521C89.6998 154.29 89.5808 155.126 89.6693 155.953C90.2545 161.399 92.0177 173.793 96.4184 180.772C96.6802 181.187 96.9518 181.582 97.2333 181.957H121.007C121.007 181.957 125.852 163.925 126.193 155.976C126.23 155.058 126.054 154.144 125.68 153.305C125.306 152.466 124.744 151.724 124.037 151.138C120.474 148.174 112.11 141.729 107.368 142.159H107.272C107.272 142.159 105.449 140.092 91.4769 151.545Z" fill="#D6DBE6"/>
<path opacity="0.05" d="M89.679 155.951C90.2643 161.396 92.0275 173.79 96.4282 180.769C97.3764 181.177 98.3395 181.577 99.3027 181.955C105.281 184.296 110.964 185.659 110.045 181.955C109.836 181.217 109.526 180.512 109.126 179.858C103.674 170.375 106.163 149.691 107.356 142.149H107.259C107.259 142.149 105.452 140.082 91.4867 151.535C90.8419 152.063 90.3389 152.743 90.0233 153.514C89.7076 154.285 89.5893 155.123 89.679 155.951Z" fill="black"/>
<path opacity="0.6" d="M97.1021 181.309C97.1021 182.353 97.9911 183.316 99.495 184.094C100.523 184.604 101.607 184.992 102.725 185.25C104.822 185.748 106.971 185.996 109.126 185.991C111.72 186.013 114.303 185.644 116.786 184.894C117.806 184.589 118.775 184.135 119.661 183.546C120.068 183.322 120.415 183.003 120.673 182.616C120.931 182.229 121.092 181.786 121.143 181.324C121.143 180.138 120.002 179.057 118.12 178.234C117.814 178.101 117.49 177.975 117.149 177.856C114.552 177.026 111.837 176.624 109.111 176.664C105.296 176.664 101.888 177.353 99.6876 178.427C99.3173 178.605 98.9607 178.811 98.6208 179.042C98.2045 179.27 97.8493 179.596 97.585 179.99C97.3207 180.385 97.155 180.837 97.1021 181.309Z" fill="#D6DBE6"/>
<path opacity="0.1" d="M96.8447 181.312C96.8447 182.357 97.7338 183.32 99.2377 184.098C100.266 184.608 101.35 184.995 102.468 185.253C104.565 185.751 106.713 186 108.869 185.994C111.467 186.025 114.054 185.663 116.544 184.92C117.563 184.615 118.532 184.16 119.418 183.572C119.826 183.347 120.173 183.028 120.431 182.641C120.689 182.254 120.85 181.811 120.9 181.349C120.9 180.164 119.759 179.082 117.877 178.26C117.571 178.126 117.248 178 116.907 177.882C114.31 177.052 111.595 176.649 108.869 176.689C105.053 176.689 101.645 177.378 99.4451 178.452C99.0747 178.631 98.7181 178.836 98.3783 179.067C97.9621 179.292 97.6057 179.613 97.3389 180.003C97.0721 180.394 96.9027 180.843 96.8447 181.312Z" fill="black"/>
<path opacity="0.6" d="M111.435 182.583C111.794 181.933 111.909 181.176 111.758 180.448C111.607 179.721 111.201 179.072 110.612 178.619C110.392 178.363 110.246 178.052 110.19 177.719C110.134 177.386 110.169 177.044 110.294 176.73C110.294 176.73 106.093 179.508 108.234 182.694L111.435 182.583Z" fill="#FFD865"/>
<path opacity="0.6" d="M110.395 182.673C110.557 182.38 110.608 182.039 110.54 181.711C110.472 181.384 110.289 181.092 110.024 180.887C109.926 180.771 109.861 180.631 109.836 180.481C109.811 180.331 109.828 180.177 109.884 180.035C109.884 180.035 107.995 181.287 108.958 182.717L110.395 182.673Z" fill="#FFD865"/>
<path opacity="0.1" d="M110.395 182.673C110.557 182.38 110.608 182.039 110.54 181.711C110.472 181.384 110.289 181.092 110.024 180.887C109.926 180.771 109.861 180.631 109.836 180.481C109.811 180.331 109.828 180.177 109.884 180.035C109.884 180.035 107.995 181.287 108.958 182.717L110.395 182.673Z" fill="black"/>
<path opacity="0.6" d="M99.4829 184.106C100.511 184.616 101.595 185.004 102.713 185.262C106.143 184.469 115.981 181.906 118.122 178.231C117.816 178.098 117.493 177.972 117.152 177.853C115.781 179.461 110.21 185.025 99.4829 184.106Z" fill="#565387"/>
<path opacity="0.6" d="M98.6367 179.04C99.9184 181.359 111.92 183.937 116.81 184.9C117.829 184.595 118.798 184.141 119.684 183.552C112.702 183.467 105.841 181.707 99.6813 178.418C99.3183 178.599 98.9692 178.807 98.6367 179.04Z" fill="#565387"/>
<path opacity="0.35" d="M113.909 151.356C114.65 152.045 114.42 153.201 114.339 154.186C114.201 156.029 114.673 157.866 115.68 159.416C116.302 160.372 117.161 161.35 117.013 162.476C116.865 163.602 115.68 164.365 115.057 165.365C114.479 166.447 114.303 167.699 114.561 168.899C114.746 170.099 115.117 171.277 115.213 172.485C115.255 172.762 115.225 173.045 115.124 173.307C114.972 173.562 114.771 173.783 114.531 173.959C114.136 174.314 113.805 174.735 113.554 175.204C113.429 175.489 113.261 175.754 113.057 175.989C112.881 176.146 112.678 176.269 112.457 176.352C110.807 176.958 108.995 176.958 107.345 176.352C105.707 175.755 104.146 174.967 102.693 174.003C102.28 173.786 101.911 173.495 101.604 173.144C101.256 172.625 101.073 172.013 101.078 171.388C101.011 170.047 101.263 168.699 101.078 167.365C100.796 165.994 100.407 164.646 99.9145 163.335C99.1921 160.77 99.2984 158.043 100.218 155.542C100.55 154.492 101.171 153.557 102.011 152.845C103.878 151.423 106.597 152 108.76 151.082C110.383 150.43 112.42 149.896 113.909 151.356Z" fill="#FFD865"/>
</g>
<g opacity="0.6">
<path opacity="0.6" d="M469.319 137.263C468.676 137.79 468.173 138.469 467.858 139.239C467.542 140.008 467.423 140.844 467.512 141.671C468.097 147.117 469.86 159.511 474.261 166.49C474.522 166.905 474.794 167.3 475.076 167.675H498.85C498.85 167.675 503.695 149.643 504.035 141.694C504.072 140.776 503.896 139.862 503.522 139.023C503.149 138.184 502.586 137.442 501.88 136.856C498.316 133.893 489.952 127.447 485.21 127.877H485.114C485.114 127.877 483.292 125.81 469.319 137.263Z" fill="#D6DBE6"/>
<path opacity="0.05" d="M467.521 141.629C468.107 147.074 469.87 159.468 474.27 166.447C475.219 166.855 476.182 167.255 477.145 167.633C483.124 169.974 488.806 171.337 487.887 167.633C487.678 166.895 487.369 166.19 486.969 165.536C481.516 156.053 484.005 135.369 485.198 127.827H485.102C485.102 127.827 483.294 125.76 469.329 137.213C468.684 137.741 468.181 138.421 467.866 139.192C467.55 139.963 467.432 140.801 467.521 141.629Z" fill="black"/>
<path opacity="0.6" d="M474.934 167.013C474.934 168.058 475.823 169.021 477.327 169.799C478.355 170.309 479.439 170.697 480.557 170.955C482.654 171.452 484.803 171.701 486.958 171.695C489.552 171.718 492.135 171.348 494.618 170.599C495.638 170.294 496.607 169.839 497.493 169.251C497.9 169.026 498.247 168.707 498.505 168.32C498.763 167.933 498.924 167.49 498.975 167.028C498.975 165.843 497.834 164.761 495.952 163.939C495.646 163.805 495.322 163.679 494.981 163.561C492.391 162.733 489.684 162.33 486.965 162.368C483.15 162.368 479.742 163.057 477.542 164.131C477.172 164.31 476.815 164.515 476.475 164.746C476.055 164.972 475.695 165.296 475.427 165.691C475.158 166.086 474.989 166.539 474.934 167.013Z" fill="#D6DBE6"/>
<path opacity="0.1" d="M474.678 167.013C474.678 168.057 475.567 169.02 477.071 169.798C478.099 170.308 479.183 170.696 480.301 170.954C482.399 171.452 484.547 171.7 486.702 171.695C489.3 171.726 491.888 171.364 494.378 170.62C495.397 170.315 496.366 169.861 497.252 169.272C497.659 169.048 498.006 168.729 498.264 168.342C498.522 167.955 498.683 167.512 498.734 167.05C498.734 165.864 497.593 164.783 495.711 163.96C495.405 163.827 495.081 163.701 494.741 163.582C492.147 162.746 489.435 162.335 486.71 162.367C482.894 162.367 479.487 163.056 477.286 164.131C476.916 164.309 476.559 164.514 476.219 164.746C475.799 164.971 475.439 165.296 475.171 165.69C474.903 166.085 474.734 166.539 474.678 167.013Z" fill="black"/>
<path opacity="0.6" d="M489.26 168.294C489.62 167.644 489.735 166.887 489.584 166.16C489.433 165.432 489.027 164.783 488.438 164.33C488.218 164.074 488.072 163.763 488.016 163.43C487.959 163.097 487.995 162.755 488.12 162.441C488.12 162.441 483.919 165.219 486.06 168.405L489.26 168.294Z" fill="#FFD865"/>
<path opacity="0.6" d="M488.247 168.374C488.409 168.082 488.46 167.741 488.392 167.413C488.324 167.086 488.141 166.793 487.877 166.589C487.778 166.473 487.713 166.333 487.688 166.183C487.663 166.033 487.68 165.878 487.736 165.737C487.736 165.737 485.847 166.989 486.81 168.419L488.247 168.374Z" fill="#FFD865"/>
<path opacity="0.1" d="M488.247 168.374C488.409 168.082 488.46 167.741 488.392 167.413C488.324 167.086 488.141 166.793 487.877 166.589C487.778 166.473 487.713 166.333 487.688 166.183C487.663 166.033 487.68 165.878 487.736 165.737C487.736 165.737 485.847 166.989 486.81 168.419L488.247 168.374Z" fill="black"/>
<path opacity="0.6" d="M477.317 169.785C478.345 170.295 479.429 170.683 480.547 170.941C483.977 170.148 493.815 167.585 495.956 163.91C495.65 163.777 495.327 163.651 494.986 163.532C493.615 165.17 488.044 170.726 477.317 169.785Z" fill="#565387"/>
<path opacity="0.6" d="M476.456 164.74C477.737 167.059 489.739 169.637 494.629 170.6C495.648 170.295 496.617 169.84 497.503 169.251C490.52 169.167 483.66 167.406 477.5 164.117C477.137 164.299 476.788 164.507 476.456 164.74Z" fill="#565387"/>
<path opacity="0.35" d="M491.743 137.062C492.484 137.751 492.254 138.906 492.172 139.892C492.035 141.735 492.506 143.572 493.513 145.122C494.136 146.078 494.995 147.056 494.847 148.182C494.699 149.308 493.513 150.071 492.891 151.071C492.313 152.153 492.137 153.405 492.395 154.605C492.58 155.805 492.95 156.983 493.047 158.191C493.089 158.468 493.058 158.751 492.958 159.013C492.806 159.268 492.604 159.489 492.365 159.665C491.97 160.02 491.639 160.441 491.387 160.909C491.262 161.195 491.095 161.46 490.891 161.695C490.715 161.852 490.511 161.975 490.291 162.058C488.641 162.664 486.829 162.664 485.179 162.058C483.541 161.461 481.979 160.673 480.526 159.709C480.114 159.492 479.744 159.201 479.437 158.85C479.089 158.331 478.906 157.719 478.911 157.094C478.844 155.753 479.096 154.405 478.911 153.071C478.629 151.7 478.24 150.352 477.748 149.041C477.026 146.476 477.132 143.749 478.052 141.248C478.383 140.198 479.005 139.263 479.845 138.551C481.712 137.128 484.43 137.706 486.594 136.788C488.216 136.136 490.254 135.602 491.743 137.062Z" fill="#FFD865"/>
</g>
<g opacity="0.6">
<path opacity="0.6" d="M535.114 16.5207C534.002 17.4326 533.135 18.607 532.59 19.9379C532.046 21.2688 531.841 22.7143 531.995 24.144C533.01 33.5676 536.062 55.0002 543.671 67.0686C544.12 67.7848 544.589 68.4688 545.078 69.1208H586.202C586.202 69.1208 594.589 37.9089 595.144 24.1737C595.208 22.5879 594.908 21.0085 594.266 19.5571C593.624 18.1057 592.657 16.8211 591.44 15.8021C585.276 10.6829 570.808 -0.496498 562.599 0.244348H562.436C562.436 0.244348 559.28 -3.28949 535.114 16.5207Z" fill="#D6DBE6"/>
<path opacity="0.05" d="M531.995 24.1627C533.01 33.5863 536.062 55.0191 543.671 67.0876C545.308 67.8284 546.983 68.4878 548.642 69.1398C559.014 73.1922 568.815 75.5852 567.23 69.1398C566.869 67.8658 566.335 66.647 565.645 65.517C556.214 49.1072 560.577 13.3241 562.577 0.322141H562.415C562.415 0.322141 559.288 -3.24876 535.122 16.5616C534.012 17.4705 533.145 18.6409 532.599 19.9677C532.054 21.2944 531.846 22.7359 531.995 24.1627Z" fill="black"/>
<path opacity="0.6" d="M544.82 68.0228C544.82 69.8305 546.361 71.4974 548.961 72.8457C550.741 73.7287 552.618 74.4001 554.554 74.846C558.197 75.6949 561.927 76.1102 565.667 76.0832C570.163 76.1396 574.641 75.5152 578.95 74.2311C580.71 73.7044 582.383 72.9206 583.914 71.9048C585.544 70.7565 586.477 69.4378 586.477 68.0302C586.477 65.978 584.499 64.1111 581.247 62.6887C580.723 62.4565 580.165 62.2392 579.573 62.0367C575.082 60.6031 570.388 59.9075 565.674 59.9772C559.066 59.9772 553.184 61.1699 549.376 63.0295C548.735 63.3388 548.119 63.6954 547.531 64.0963C545.79 65.252 544.82 66.593 544.82 68.0228Z" fill="#D6DBE6"/>
<path opacity="0.1" d="M544.384 68.0228C544.384 69.8305 545.925 71.4974 548.525 72.8457C550.305 73.7287 552.182 74.4001 554.118 74.846C557.761 75.6949 561.491 76.1102 565.231 76.0832C569.727 76.1396 574.205 75.5152 578.514 74.2311C580.274 73.7044 581.947 72.9206 583.478 71.9048C585.108 70.7565 586.041 69.4378 586.041 68.0302C586.041 65.978 584.063 64.1111 580.811 62.6887C580.287 62.4565 579.729 62.2392 579.137 62.0367C574.646 60.6031 569.952 59.9075 565.238 59.9772C558.63 59.9772 552.748 61.1699 548.94 63.0295C548.299 63.3388 547.683 63.6954 547.095 64.0963C545.347 65.252 544.384 66.593 544.384 68.0228Z" fill="black"/>
<path opacity="0.6" d="M569.616 70.2067C570.237 69.081 570.434 67.7702 570.171 66.5118C569.909 65.2533 569.205 64.1304 568.186 63.3465C568.186 63.3465 566.764 61.6351 567.638 60.0793C567.638 60.0793 560.37 64.88 564.074 70.3993L569.616 70.2067Z" fill="#FFD865"/>
<path opacity="0.6" d="M567.827 70.3708C568.106 69.8638 568.195 69.2735 568.076 68.7068C567.958 68.1401 567.641 67.6345 567.182 67.2815C567.013 67.0787 566.901 66.8344 566.858 66.5739C566.815 66.3134 566.843 66.0462 566.938 65.7998C566.938 65.7998 563.663 67.9631 565.337 70.4449L567.827 70.3708Z" fill="#FFD865"/>
<path opacity="0.1" d="M567.827 70.3708C568.106 69.8638 568.195 69.2735 568.076 68.7068C567.958 68.1401 567.641 67.6345 567.182 67.2815C567.013 67.0787 566.901 66.8344 566.858 66.5739C566.815 66.3134 566.843 66.0462 566.938 65.7998C566.938 65.7998 563.663 67.9631 565.337 70.4449L567.827 70.3708Z" fill="black"/>
<path opacity="0.6" d="M548.975 72.8458C550.755 73.7288 552.632 74.4002 554.569 74.8461C560.495 73.4681 577.535 69.0379 581.239 62.6888C580.715 62.4567 580.157 62.2394 579.565 62.0369C577.164 64.815 567.526 74.4386 548.975 72.8458Z" fill="#565387"/>
<path opacity="0.6" d="M547.487 64.0681C549.709 68.0761 570.453 72.5434 578.921 74.2103C580.681 73.6837 582.353 72.8998 583.884 71.8841C571.821 71.7269 559.972 68.6782 549.332 62.9939C548.691 63.3056 548.074 63.6647 547.487 64.0681Z" fill="#565387"/>
<path opacity="0.35" d="M573.872 16.1957C575.094 17.3958 574.753 19.3813 574.613 21.0852C574.375 24.2729 575.19 27.4505 576.931 30.1309C578.013 31.783 579.502 33.4721 579.236 35.4279C578.969 37.3837 576.931 38.695 575.85 40.4212C574.768 42.1474 574.679 44.4588 574.998 46.5406C575.316 48.6223 575.961 50.6522 576.124 52.7488C576.196 53.2284 576.143 53.7186 575.968 54.1712C575.704 54.6114 575.353 54.9942 574.939 55.2973C574.253 55.9103 573.68 56.6371 573.242 57.4458C573.026 57.9411 572.737 58.4007 572.383 58.8089C572.079 59.081 571.727 59.2945 571.346 59.4386C568.567 60.6091 565.367 60.4017 562.5 59.4831C559.668 58.4511 556.967 57.0884 554.454 55.4232C553.742 55.0487 553.104 54.5464 552.573 53.9416C551.972 53.0405 551.657 51.9794 551.669 50.8967C551.55 48.5779 551.987 46.2442 551.713 43.9328C551.439 41.6214 550.365 39.2951 549.706 36.9689C548.454 32.532 548.635 27.8132 550.224 23.4855C550.796 21.6691 551.869 20.0511 553.321 18.8182C556.551 16.3586 561.248 17.3366 564.989 15.7734C567.79 14.588 571.308 13.6694 573.872 16.1957Z" fill="#FFD865"/>
</g>
<path d="M326.114 77.0757C324.245 78.6073 322.786 80.5803 321.871 82.8167C320.955 85.053 320.611 87.4822 320.869 89.885C322.573 105.717 327.692 141.744 340.479 161.992C341.239 163.197 342.027 164.343 342.842 165.429H411.926C411.926 165.429 426.002 113.022 426.95 89.9294C427.059 87.2592 426.549 84.5999 425.462 82.1585C424.375 79.7171 422.74 77.5594 420.683 75.8533C410.311 67.2521 386.026 48.5086 372.231 49.7532H371.95C371.95 49.7532 366.705 43.8042 326.114 77.0757Z" fill="#D6DBE6"/>
<path opacity="0.05" d="M320.875 89.8832C322.579 105.715 327.699 141.742 340.486 161.989C343.234 163.175 346.042 164.338 348.828 165.427C366.193 172.235 382.721 176.251 380.047 165.427C379.441 163.288 378.546 161.242 377.387 159.345C361.541 131.785 368.868 71.6807 372.201 49.774H371.92C371.92 49.774 366.667 43.7732 326.076 77.0444C324.21 78.5836 322.758 80.5636 321.85 82.8052C320.942 85.0469 320.607 87.4796 320.875 89.8832Z" fill="black"/>
<path d="M342.453 163.585C342.453 166.622 345.039 169.43 349.402 171.682C352.392 173.164 355.545 174.291 358.796 175.038C364.896 176.459 371.143 177.155 377.406 177.113C385.889 177.113 393.66 175.942 399.713 174.001C402.671 173.116 405.482 171.798 408.055 170.09C410.796 168.156 412.359 165.941 412.359 163.578C412.359 160.14 409.04 156.992 403.573 154.606C402.689 154.221 401.75 153.855 400.758 153.51C394.572 151.354 386.385 150.05 377.406 150.05C366.294 150.05 356.418 152.05 349.995 155.176C348.917 155.694 347.88 156.29 346.891 156.962C344.068 158.925 342.453 161.185 342.453 163.585Z" fill="#D6DBE6"/>
<path opacity="0.1" d="M341.709 163.585C341.709 166.622 344.295 169.43 348.658 171.682C351.648 173.164 354.801 174.291 358.052 175.038C364.153 176.459 370.399 177.155 376.662 177.113C385.145 177.113 392.916 175.942 398.969 174.001C401.927 173.116 404.738 171.798 407.311 170.09C410.052 168.156 411.615 165.941 411.615 163.578C411.615 160.14 408.296 156.992 402.829 154.606C401.945 154.221 401.006 153.855 400.014 153.51C393.828 151.354 385.641 150.05 376.662 150.05C365.55 150.05 355.674 152.05 349.251 155.176C348.173 155.694 347.136 156.29 346.147 156.962C343.324 158.925 341.709 161.185 341.709 163.585Z" fill="black"/>
<path d="M384.079 167.262C384.079 167.262 387.827 161.068 381.678 155.734C381.678 155.734 379.293 152.86 380.752 150.252C380.752 150.252 368.543 158.312 374.766 167.588L384.079 167.262Z" fill="#FFD865"/>
<path d="M381.106 167.557C381.575 166.705 381.724 165.715 381.525 164.763C381.327 163.812 380.794 162.963 380.024 162.371C380.024 162.371 378.95 161.074 379.609 159.904C379.609 159.904 374.112 163.534 376.913 167.705L381.106 167.557Z" fill="#FFD865"/>
<path opacity="0.1" d="M381.106 167.557C381.575 166.705 381.724 165.715 381.525 164.763C381.327 163.812 380.794 162.963 380.024 162.371C380.024 162.371 378.95 161.074 379.609 159.904C379.609 159.904 374.112 163.534 376.913 167.705L381.106 167.557Z" fill="black"/>
<path d="M349.404 171.671C352.393 173.152 355.546 174.279 358.797 175.027C368.762 172.715 397.321 165.27 403.567 154.602C402.683 154.216 401.744 153.851 400.751 153.505C396.744 158.187 380.519 174.345 349.404 171.671Z" fill="#565387"/>
<path d="M346.895 156.966C350.599 163.7 385.486 171.197 399.695 174.005C402.653 173.12 405.464 171.801 408.037 170.093C387.777 169.835 367.874 164.721 349.999 155.18C348.922 155.697 347.884 156.294 346.895 156.966Z" fill="#565387"/>
<path opacity="0.35" d="M391.296 76.5328C393.348 78.5405 392.778 81.8891 392.556 84.7487C392.157 90.1036 393.526 95.4414 396.452 99.9435C398.268 102.722 400.779 105.559 400.32 108.834C399.86 112.108 396.445 114.323 394.63 117.227C392.815 120.132 392.667 124.014 393.193 127.51C393.719 131.007 394.808 134.415 395.089 137.934C395.21 138.741 395.118 139.566 394.823 140.327C394.388 141.065 393.811 141.71 393.126 142.224C391.974 143.253 391.009 144.473 390.274 145.831C389.911 146.663 389.424 147.435 388.829 148.121C388.317 148.579 387.724 148.938 387.081 149.18C382.421 151.143 377.042 150.795 372.219 149.247C367.396 147.698 363.025 145.054 358.706 142.424C357.507 141.79 356.435 140.941 355.543 139.92C354.531 138.408 354 136.626 354.017 134.808C353.817 130.911 354.558 126.984 354.091 123.11C353.602 119.072 351.831 115.316 350.713 111.404C348.613 103.954 348.919 96.0306 351.587 88.7641C352.691 85.8007 354.261 82.8374 356.773 80.9334C362.203 76.7995 370.108 78.4664 376.375 75.8141C381.05 73.8361 386.955 72.2803 391.296 76.5328Z" fill="#FFD865"/>
<path d="M339.261 568.487C344.143 571.25 356.204 569.168 363.709 567.464C364.431 567.303 365.103 566.967 365.667 566.487C366.23 566.007 366.667 565.396 366.94 564.708C367.213 564.02 367.314 563.275 367.234 562.539C367.154 561.804 366.895 561.098 366.479 560.485L364.442 557.47L363.657 557.352H364.353L371.999 524.554C376.444 509.738 373.969 498.417 371.999 489.542C371.058 485.297 373.273 475.866 375.836 467.183C380.074 469.021 384.26 470.413 387.779 470.806C389.957 471.051 392.357 471.288 394.869 471.473C397.565 478.563 399.906 484.808 400.106 485.601C403.285 498.314 418.842 504.337 418.842 504.337L458.537 549.462C458.537 549.462 456.07 555.87 451.128 557.848C451.128 557.848 438.801 560.811 446.683 563.775C451.951 565.753 463.597 561.789 470.753 558.937C471.434 558.665 472.038 558.23 472.514 557.672C472.989 557.113 473.321 556.447 473.481 555.731C473.641 555.015 473.623 554.271 473.431 553.563C473.238 552.856 472.876 552.206 472.376 551.669L469.864 548.98H469.634L457.285 522.584C455.803 515.175 442.001 494.476 433.578 490.527C428.688 488.231 424.48 477.555 421.806 469.043C425.599 467.737 428.978 465.449 431.6 462.412C440.971 451.07 444.935 457.478 463.159 453.041C486.303 447.41 477.413 431.556 474.694 431.489C462.345 425.829 430.244 396.166 426.94 393.128C427.555 392.817 427.895 392.625 427.895 392.625L426.71 392.914L426.666 392.869C426.116 390.662 425.392 388.502 424.502 386.409C426.018 387.719 427.619 388.927 429.296 390.024C435.037 393.773 442.245 396.24 448.765 394.106L448.609 393.936C448.987 393.84 449.35 393.736 449.75 393.617C445.911 389.435 443.555 384.106 443.046 378.452C446.221 377.922 449.29 376.884 452.136 375.378C463.434 369.94 471.568 357.731 471.138 345.085C470.975 340.254 469.731 335.35 470.849 330.653C471.894 326.297 472.946 324.541 473.761 320.14C476.228 306.805 478.695 309.294 476.472 299.293C475.332 294.159 469.264 291.566 466.553 287.062C462.589 280.475 462.463 272.385 461.367 264.769C460.27 257.154 457.544 248.864 450.728 245.315C441.008 240.247 434.259 227.89 424.554 229.364C424.036 229.446 423.517 229.505 423.006 229.557C419.33 227.507 415.136 226.573 410.937 226.868C408.456 227.053 406.011 227.668 403.529 227.653C400.808 227.633 398.145 226.864 395.832 225.431C395.713 225.719 395.617 226.016 395.528 226.312C395.298 226.186 395.069 226.06 394.846 225.92C394.206 227.592 393.953 229.388 394.106 231.172C390.271 232.117 386.82 234.22 384.223 237.195C383.667 233.224 383.341 230.698 383.341 230.698L382.356 181.876C382.356 181.876 393.698 162.614 382.852 162.614C372.006 162.614 372.48 179.876 372.48 179.876L369.517 217.355C367.546 230.691 369.517 239.581 369.517 239.581C374.621 253.072 377.57 273.037 378.763 282.55C363.805 293.87 359.634 303.886 359.797 312.184C359.612 320.711 364.072 327.534 366.561 332.29C367.168 333.446 367.45 335.876 367.472 339.284C367.287 367.436 351.522 453.856 351.522 453.856L351.685 453.922L351.522 454.841L352.344 455.182C351.403 458.145 350.381 461.108 349.299 463.968C343.876 478.266 349.299 488.134 349.299 488.134L354.411 556.003L353.989 555.937C353.989 555.937 349.722 562.175 344.543 563.345C344.565 563.33 331.927 564.338 339.261 568.487ZM410.019 363.391L409.974 363.346C405.295 358.111 402.683 351.35 402.625 344.329C402.72 339.304 403.882 334.357 406.033 329.816C407.64 323.484 408.77 317.04 409.411 310.539C409.679 314.108 409.731 317.691 409.567 321.266C408.974 335.387 406.366 349.804 410.026 363.391H410.019Z" fill="url(#paint0_linear_272_332)"/>
<path d="M404.854 291.8C409.107 298.993 408.336 312.143 402.432 336.191C402.432 336.191 395.683 354.512 409.181 369.937C422.679 385.361 425.568 398.83 425.568 398.83C425.568 398.83 467.945 425.085 473.294 436.909C465.337 419.314 491.459 444.503 461.24 451.852C443.408 456.193 439.548 449.926 430.391 461.009C421.235 472.092 400.506 470.64 387.489 469.203C374.473 467.765 352.299 452.334 352.299 452.334C352.299 452.334 376.88 348.697 371.561 338.569C366.545 328.99 348.506 310.787 383.844 287.214C390.882 282.546 400.513 284.517 404.854 291.8Z" fill="#F0898B"/>
<path d="M404.855 291.8C409.107 298.993 408.337 312.143 402.432 336.191C402.432 336.191 395.683 354.512 409.181 369.937C422.679 385.361 425.569 398.83 425.569 398.83C425.569 398.83 468.219 424.967 473.294 436.909C465.819 419.314 491.459 444.503 461.24 451.852C443.408 456.193 439.548 449.926 430.392 461.009C421.235 472.092 400.506 470.64 387.489 469.203C374.473 467.765 352.299 452.334 352.299 452.334C352.299 452.334 376.88 348.697 371.561 338.569C366.546 328.99 348.506 310.787 383.844 287.214C390.882 282.546 400.513 284.517 404.855 291.8Z" fill="#FFDF9C"/>
<path opacity="0.03" d="M404.855 291.8C409.107 298.993 408.337 312.143 402.432 336.191C402.432 336.191 395.683 354.512 409.181 369.937C422.679 385.361 425.569 398.83 425.569 398.83C425.569 398.83 468.219 424.967 473.294 436.909C465.819 419.314 491.459 444.503 461.24 451.852C443.408 456.193 439.548 449.926 430.392 461.009C421.235 472.092 400.506 470.64 387.489 469.203C374.473 467.765 352.299 452.334 352.299 452.334C352.299 452.334 376.88 348.697 371.561 338.569C366.546 328.99 348.506 310.787 383.844 287.214C390.882 282.546 400.513 284.517 404.855 291.8Z" fill="black"/>
<path d="M417.863 456.699C417.863 456.699 424.131 484.658 432.324 488.51C440.518 492.363 454.016 512.61 455.461 519.841L467.752 546.126H456.639L417.834 502.016C417.834 502.016 402.624 496.089 399.512 483.695C399.031 481.769 386.014 448.023 386.014 448.023L417.863 456.699Z" fill="#FEC2BE"/>
<path d="M381.725 448.03C381.725 448.03 370.154 478.878 372.095 487.561C374.036 496.244 376.436 507.327 372.095 521.788L364.612 553.837L354.981 553.356L349.914 486.124C349.914 486.124 344.609 476.493 349.914 462.506C355.218 448.519 359.041 431.16 359.041 431.16L381.725 448.03Z" fill="#FEC2BE"/>
<path d="M379.326 290.394C379.326 290.394 376.437 260.99 369.695 243.151C369.695 243.151 367.769 234.475 369.695 221.459L372.585 184.824C372.585 184.824 372.103 167.955 382.705 167.955C393.306 167.955 382.223 186.758 382.223 186.758L383.186 234.483C383.186 234.483 389.454 283.171 393.788 288.475L379.326 290.394Z" fill="#FEC2BE"/>
<path opacity="0.05" d="M379.326 290.394C379.326 290.394 376.437 260.99 369.695 243.151C369.695 243.151 367.769 234.475 369.695 221.459L372.585 184.824C372.585 184.824 372.103 167.955 382.705 167.955C393.306 167.955 382.223 186.758 382.223 186.758L383.186 234.483C383.186 234.483 389.454 283.171 393.788 288.475L379.326 290.394Z" fill="black"/>
<path d="M381.716 255.724C381.716 255.724 383.642 278.861 377.856 286.573C377.856 286.573 391.355 279.342 402.919 285.61C402.919 285.61 395.689 265.844 398.096 257.169L381.716 255.724Z" fill="#FEC2BE"/>
<path d="M404.864 286.013C409.117 293.206 411.243 306.356 405.338 330.404C405.338 330.404 395.707 348.725 409.198 364.15C422.689 379.574 425.586 393.043 425.586 393.043C425.586 393.043 461.257 426.307 473.311 431.122C473.311 431.122 479.097 441.724 461.257 446.065C443.418 450.406 439.565 444.139 430.409 455.222C421.252 466.305 400.523 464.853 387.506 463.416C374.49 461.978 352.079 452.57 352.079 452.57C352.079 452.57 372.082 342.924 366.785 332.782C361.769 323.203 348.553 305 383.884 281.427C390.892 276.759 400.523 278.73 404.864 286.013Z" fill="#FFDF9C"/>
<path d="M390.389 314.008C399.439 314.008 406.776 306.671 406.776 297.621C406.776 288.57 399.439 281.233 390.389 281.233C381.338 281.233 374.001 288.57 374.001 297.621C374.001 306.671 381.338 314.008 390.389 314.008Z" fill="#FEC2BE"/>
<path opacity="0.1" d="M396.17 304.373L399.541 354.987L388.428 408.981C388.428 408.981 398.548 444.653 388.428 441.274C378.308 437.896 377.827 408.492 377.827 408.492L384.576 352.091C384.576 352.091 376.382 309.67 377.827 300.972C379.271 292.274 396.17 304.373 396.17 304.373Z" fill="black"/>
<path d="M396.17 303.406L399.541 354.021L388.428 408.014C388.428 408.014 398.548 443.686 388.428 440.308C378.308 436.929 377.827 407.525 377.827 407.525L384.576 351.124C384.576 351.124 376.382 308.703 377.827 300.005C379.271 291.308 396.17 303.406 396.17 303.406Z" fill="#FEC2BE"/>
<path opacity="0.03" d="M398.362 271.353C391.539 271.353 385.331 269.405 382.064 263.945C382.019 259.685 381.76 256.625 381.76 256.625L398.147 258.107C397.11 261.811 397.681 265.012 398.888 270.398C398.54 270.405 398.666 271.353 398.362 271.353Z" fill="black"/>
<path d="M398.105 272.081C408.49 272.081 416.908 263.662 416.908 253.278C416.908 242.894 408.49 234.475 398.105 234.475C387.721 234.475 379.303 242.894 379.303 253.278C379.303 263.662 387.721 272.081 398.105 272.081Z" fill="#FEC2BE"/>
<path opacity="0.03" d="M377.639 325.831C377.639 325.831 376.157 333.062 366.793 333.788L377.639 325.831Z" fill="black"/>
<path opacity="0.03" d="M427.523 455.259C436.68 444.146 440.54 450.436 458.372 446.102C476.204 441.768 470.426 431.159 470.426 431.159C458.372 426.336 422.7 393.08 422.7 393.08C422.7 393.08 419.811 379.582 406.313 364.187C392.815 348.792 402.453 330.441 402.453 330.441C408.38 306.401 406.239 293.243 401.979 286.05C400.807 284.078 399.184 282.412 397.243 281.19C395.302 279.968 393.099 279.224 390.814 279.019C393.587 278.726 396.386 279.232 398.88 280.478C401.374 281.724 403.46 283.657 404.891 286.05C409.143 293.243 411.269 306.393 405.365 330.441C405.365 330.441 395.734 348.762 409.224 364.187C422.715 379.611 425.612 393.08 425.612 393.08C425.612 393.08 461.284 426.344 473.337 431.159C473.337 431.159 479.123 441.761 461.284 446.102C443.444 450.443 439.592 444.176 430.435 455.259C424.101 462.927 412.24 464.601 401.216 464.423C411.351 464.26 421.745 462.26 427.523 455.259Z" fill="black"/>
<path opacity="0.1" d="M391.285 275.087C391.892 273.738 393.189 272.864 394.167 271.745C397.345 268.137 396.797 262.729 396.982 257.921C397.17 253.328 398.197 248.809 400.012 244.586C398.875 244.022 397.84 243.27 396.952 242.363C395.412 240.723 394.364 238.683 393.928 236.476C393.492 234.268 393.685 231.983 394.485 229.88C396.75 231.264 399.351 232 402.005 232.006C404.435 232.006 406.828 231.421 409.258 231.265C413.364 230.977 417.465 231.891 421.059 233.895C421.563 233.844 422.067 233.784 422.541 233.703C432.031 232.266 438.625 244.349 448.123 249.298C454.79 252.772 457.479 260.877 458.494 268.315C459.509 275.753 459.665 283.666 463.532 290.104C466.184 294.504 472.119 297.045 473.23 302.061C475.401 311.84 472.993 309.425 470.585 322.442C469.785 326.746 468.755 328.465 467.74 332.717C466.644 337.31 467.859 342.104 468.022 346.793C468.548 362.292 455.916 377.131 440.529 379.079C440.983 384.743 443.332 390.088 447.196 394.252C440.825 396.341 433.78 393.926 428.164 390.259C419.061 384.259 412.409 375.197 409.413 364.714C405.628 351.275 408.235 336.992 408.835 323.042C409.436 309.091 407.235 293.578 396.626 284.518C393.633 281.969 389.692 278.635 391.285 275.087Z" fill="black"/>
<path d="M392.237 274.612C392.844 273.263 394.141 272.389 395.119 271.271C398.297 267.663 397.749 262.255 397.934 257.446C398.122 252.854 399.149 248.334 400.964 244.111C399.827 243.547 398.792 242.796 397.904 241.889C396.364 240.248 395.316 238.208 394.88 236.001C394.444 233.794 394.637 231.508 395.437 229.406C397.698 230.809 400.303 231.563 402.964 231.584C405.394 231.584 407.787 230.998 410.217 230.843C414.31 230.543 418.403 231.438 421.996 233.421C422.5 233.369 423.004 233.31 423.478 233.228C432.968 231.791 439.562 243.874 449.06 248.823C455.727 252.298 458.416 260.402 459.431 267.841C460.446 275.279 460.602 283.191 464.469 289.629C467.121 294.029 473.056 296.57 474.167 301.586C476.338 311.365 473.93 308.95 471.522 321.966C470.722 326.271 469.692 327.99 468.677 332.242C467.581 336.835 468.796 341.628 468.959 346.318C469.485 361.816 456.853 376.655 441.466 378.604C441.9 384.252 444.22 389.59 448.052 393.761C441.681 395.851 434.635 393.436 429.02 389.768C419.901 383.769 413.238 374.697 410.239 364.202C406.454 350.763 409.061 336.48 409.661 322.529C410.261 308.579 408.061 293.066 397.452 284.006C394.585 281.494 390.644 278.16 392.237 274.612Z" fill="#AF637C"/>
<path d="M456.684 546.123C456.684 546.123 454.276 552.39 449.453 554.316C449.453 554.316 437.4 557.206 445.112 560.102C450.298 562.036 461.64 558.161 468.641 555.376C469.301 555.103 469.886 554.675 470.345 554.129C470.805 553.582 471.126 552.933 471.282 552.236C471.437 551.539 471.423 550.815 471.239 550.124C471.055 549.434 470.708 548.799 470.227 548.271L467.774 545.641L456.684 546.123Z" fill="#4C4981"/>
<path d="M354.484 552.383C354.484 552.383 350.313 558.48 345.253 559.635C345.253 559.635 332.895 560.621 340.067 564.673C344.838 567.37 356.632 565.34 363.981 563.673C364.687 563.514 365.342 563.185 365.892 562.714C366.441 562.244 366.868 561.647 367.134 560.975C367.4 560.303 367.499 559.576 367.421 558.857C367.342 558.138 367.09 557.449 366.685 556.85L364.693 553.886L354.484 552.383Z" fill="#4C4981"/>
<path opacity="0.03" d="M426.784 392.835C426.784 392.835 415.671 399.102 403.166 398.621L426.784 392.835Z" fill="black"/>
<path d="M487.293 570.305C485.567 568.697 483.944 566.801 483.441 564.497C482.937 562.193 483.922 559.422 486.13 558.57C488.597 557.621 491.242 559.311 493.242 561.066C495.242 562.822 497.539 564.771 500.154 564.4C498.807 563.179 497.8 561.629 497.23 559.902C496.66 558.175 496.547 556.33 496.902 554.547C497.017 553.811 497.329 553.119 497.806 552.547C499.176 551.065 501.666 551.71 503.303 552.865C508.489 556.569 509.97 563.63 510.008 570.016C510.534 567.712 510.089 565.311 510.104 562.948C510.119 560.585 510.763 557.97 512.756 556.695C514.009 556.025 515.418 555.7 516.838 555.755C519.187 555.666 521.802 555.903 523.402 557.622C525.395 559.755 524.884 563.333 523.143 565.682C521.402 568.03 518.772 569.505 516.349 571.127C514.404 572.286 512.746 573.869 511.497 575.757C511.349 576.021 511.227 576.299 511.134 576.587H496.391C493.089 574.913 490.028 572.8 487.293 570.305Z" fill="#F21732"/>
<path d="M622.189 454.001C622.189 454.001 677.256 494.088 565.47 538.791C565.47 538.791 545.667 492.932 574.857 459.469C580.525 452.944 588.389 448.725 596.959 447.611C605.53 446.497 614.212 448.565 621.359 453.423L622.189 454.001Z" fill="#F21732"/>
<path d="M621.572 453.202C621.572 453.202 568.549 486.94 565.46 538.785" stroke="#535461" stroke-miterlimit="10"/>
<path d="M564.319 532.788C564.319 532.788 582.596 470.735 560.889 425.062C551.777 405.897 548.754 384.375 552.962 363.572C554.974 353.695 557.888 344.024 561.667 334.679" stroke="#535461" stroke-width="2" stroke-miterlimit="10"/>
<path d="M548.159 305.874C548.159 313.483 561.932 335.508 561.932 335.508C561.932 335.508 575.704 313.453 575.704 305.874C575.621 302.278 574.133 298.857 571.56 296.343C568.987 293.829 565.533 292.421 561.936 292.421C558.338 292.421 554.884 293.829 552.311 296.343C549.738 298.857 548.25 302.278 548.167 305.874H548.159Z" fill="#F21732"/>
<path d="M525.396 347.999C529.53 354.385 553.074 365.409 553.074 365.409C553.074 365.409 552.644 339.412 548.51 333.026C546.483 330.06 543.376 328.004 539.854 327.297C536.332 326.589 532.672 327.286 529.656 329.238C526.641 331.191 524.507 334.245 523.711 337.748C522.915 341.252 523.52 344.927 525.396 347.991V347.999Z" fill="#F21732"/>
<path d="M526.406 419.98C533.199 423.403 559.084 421.039 559.084 421.039C559.084 421.039 545.594 398.814 538.8 395.391C535.549 393.832 531.817 393.61 528.404 394.772C524.992 395.934 522.171 398.388 520.547 401.607C518.924 404.826 518.627 408.553 519.721 411.988C520.815 415.423 523.212 418.293 526.398 419.98H526.406Z" fill="#F21732"/>
<path d="M539.402 474.262C545.514 478.781 571.436 480.826 571.436 480.826C571.436 480.826 561.894 456.645 555.782 452.118C554.329 451.026 552.675 450.231 550.913 449.781C549.152 449.331 547.319 449.234 545.52 449.496C543.721 449.758 541.992 450.373 540.432 451.307C538.872 452.24 537.513 453.473 536.431 454.935C535.35 456.396 534.569 458.057 534.133 459.822C533.697 461.587 533.615 463.42 533.891 465.217C534.167 467.014 534.797 468.738 535.742 470.291C536.688 471.843 537.932 473.193 539.402 474.262Z" fill="#F21732"/>
<path d="M582.044 366.882C576.592 372.179 551.173 377.669 551.173 377.669C551.173 377.669 557.396 352.428 562.849 347.124C564.146 345.863 565.679 344.871 567.36 344.203C569.041 343.535 570.837 343.205 572.646 343.231C574.454 343.257 576.24 343.639 577.901 344.355C579.562 345.071 581.065 346.108 582.326 347.405C583.586 348.703 584.579 350.235 585.247 351.916C585.915 353.597 586.245 355.393 586.219 357.202C586.193 359.01 585.811 360.796 585.094 362.457C584.378 364.118 583.342 365.622 582.044 366.882Z" fill="#F21732"/>
<path d="M596.425 430.561C589.631 433.983 563.746 431.62 563.746 431.62C563.746 431.62 577.237 409.395 584.03 405.972C585.65 405.104 587.427 404.568 589.257 404.397C591.087 404.226 592.933 404.423 594.685 404.977C596.438 405.53 598.062 406.429 599.462 407.62C600.862 408.81 602.009 410.269 602.837 411.911C603.664 413.552 604.154 415.342 604.279 417.176C604.404 419.009 604.16 420.849 603.562 422.587C602.965 424.325 602.026 425.926 600.8 427.296C599.574 428.665 598.086 429.775 596.425 430.561Z" fill="#F21732"/>
<path d="M601.946 494.402C595.833 498.921 569.911 500.966 569.911 500.966C569.911 500.966 579.453 476.785 585.565 472.258C588.504 470.121 592.168 469.231 595.759 469.783C599.351 470.335 602.578 472.284 604.739 475.205C606.9 478.126 607.819 481.783 607.296 485.379C606.772 488.975 604.849 492.218 601.946 494.402Z" fill="#F21732"/>
<path opacity="0.25" d="M548.159 305.874C548.159 313.483 561.932 335.508 561.932 335.508C561.932 335.508 575.704 313.453 575.704 305.874C575.621 302.278 574.133 298.857 571.56 296.343C568.987 293.829 565.533 292.421 561.936 292.421C558.338 292.421 554.884 293.829 552.311 296.343C549.738 298.857 548.25 302.278 548.167 305.874H548.159Z" fill="black"/>
<path opacity="0.25" d="M525.396 347.999C529.53 354.385 553.074 365.409 553.074 365.409C553.074 365.409 552.644 339.412 548.51 333.026C546.483 330.06 543.376 328.004 539.854 327.297C536.332 326.589 532.672 327.286 529.656 329.238C526.641 331.191 524.507 334.245 523.711 337.748C522.915 341.252 523.52 344.927 525.396 347.991V347.999Z" fill="black"/>
<path opacity="0.25" d="M526.406 419.98C533.199 423.403 559.084 421.039 559.084 421.039C559.084 421.039 545.594 398.814 538.8 395.391C535.549 393.832 531.817 393.61 528.404 394.772C524.992 395.934 522.171 398.388 520.547 401.607C518.924 404.826 518.627 408.553 519.721 411.988C520.815 415.423 523.212 418.293 526.398 419.98H526.406Z" fill="black"/>
<path opacity="0.25" d="M539.402 474.262C545.514 478.781 571.436 480.826 571.436 480.826C571.436 480.826 561.894 456.645 555.782 452.118C554.329 451.026 552.675 450.231 550.913 449.781C549.152 449.331 547.319 449.234 545.52 449.496C543.721 449.758 541.992 450.373 540.432 451.307C538.872 452.24 537.513 453.473 536.431 454.935C535.35 456.396 534.569 458.057 534.133 459.822C533.697 461.587 533.615 463.42 533.891 465.217C534.167 467.014 534.797 468.738 535.742 470.291C536.688 471.843 537.932 473.193 539.402 474.262Z" fill="black"/>
<path opacity="0.25" d="M582.044 366.882C576.592 372.179 551.173 377.669 551.173 377.669C551.173 377.669 557.396 352.428 562.849 347.124C564.146 345.863 565.679 344.871 567.36 344.203C569.041 343.535 570.837 343.205 572.646 343.231C574.454 343.257 576.24 343.639 577.901 344.355C579.562 345.071 581.065 346.108 582.326 347.405C583.586 348.703 584.579 350.235 585.247 351.916C585.915 353.597 586.245 355.393 586.219 357.202C586.193 359.01 585.811 360.796 585.094 362.457C584.378 364.118 583.342 365.622 582.044 366.882Z" fill="black"/>
<path opacity="0.25" d="M596.425 430.561C589.631 433.983 563.746 431.62 563.746 431.62C563.746 431.62 577.237 409.395 584.03 405.972C585.65 405.104 587.427 404.568 589.257 404.397C591.087 404.226 592.933 404.423 594.685 404.977C596.438 405.53 598.062 406.429 599.462 407.62C600.862 408.81 602.009 410.269 602.837 411.911C603.664 413.552 604.154 415.342 604.279 417.176C604.404 419.009 604.16 420.849 603.562 422.587C602.965 424.325 602.026 425.926 600.8 427.296C599.574 428.665 598.086 429.775 596.425 430.561Z" fill="black"/>
<path opacity="0.25" d="M601.946 494.402C595.833 498.921 569.911 500.966 569.911 500.966C569.911 500.966 579.453 476.785 585.565 472.258C588.504 470.121 592.168 469.231 595.759 469.783C599.351 470.335 602.578 472.284 604.739 475.205C606.9 478.126 607.819 481.783 607.296 485.379C606.772 488.975 604.849 492.218 601.946 494.402Z" fill="black"/>
<defs>
<linearGradient id="paint0_linear_272_332" x1="407.856" y1="569.835" x2="407.856" y2="162.636" gradientUnits="userSpaceOnUse">
<stop stop-color="#808080" stop-opacity="0.25"/>
<stop offset="0.54" stop-color="#808080" stop-opacity="0.12"/>
<stop offset="1" stop-color="#808080" stop-opacity="0.1"/>
</linearGradient>
</defs>
</svg>
