<svg width="22" height="21" viewBox="0 0 22 21" fill="none" xmlns="http://www.w3.org/2000/svg">
<path d="M11 20.5625C5.20156 20.5625 0.5 16.0568 0.5 10.5C0.5 4.94316 5.20156 0.4375 11 0.4375C16.7984 0.4375 21.5 4.94316 21.5 10.5C21.5 16.0568 16.7984 20.5625 11 20.5625ZM11 2.14453C6.18594 2.14453 2.28125 5.88652 2.28125 10.5C2.28125 15.1135 6.18594 18.8555 11 18.8555C15.8141 18.8555 19.7188 15.1135 19.7188 10.5C19.7188 5.88652 15.8141 2.14453 11 2.14453Z" fill="white"/>
<path d="M9.875 14.4531C9.875 14.1672 9.99353 13.893 10.2045 13.6908C10.4155 13.4886 10.7016 13.375 11 13.375C11.2984 13.375 11.5845 13.4886 11.7955 13.6908C12.0065 13.893 12.125 14.1672 12.125 14.4531C12.125 14.7391 12.0065 15.0133 11.7955 15.2155C11.5845 15.4177 11.2984 15.5312 11 15.5312C10.7016 15.5312 10.4155 15.4177 10.2045 15.2155C9.99353 15.0133 9.875 14.7391 9.875 14.4531ZM11.5625 11.9375H10.4375C10.3344 11.9375 10.25 11.8566 10.25 11.7578V5.64844C10.25 5.54961 10.3344 5.46875 10.4375 5.46875H11.5625C11.6656 5.46875 11.75 5.54961 11.75 5.64844V11.7578C11.75 11.8566 11.6656 11.9375 11.5625 11.9375Z" fill="white"/>
</svg>
