<svg width="22" height="22" viewBox="0 0 22 22" fill="none" xmlns="http://www.w3.org/2000/svg">
<path fill-rule="evenodd" clip-rule="evenodd" d="M6.465 0.0659389C7.638 0.0119389 8.012 -6.10352e-05 11 -6.10352e-05C13.988 -6.10352e-05 14.362 0.0129389 15.534 0.0659389C16.706 0.118939 17.506 0.305939 18.206 0.576939C18.939 0.853939 19.604 1.28694 20.154 1.84694C20.714 2.39594 21.146 3.05994 21.422 3.79394C21.694 4.49394 21.88 5.29394 21.934 6.46394C21.988 7.63894 22 8.01294 22 10.9999C22 13.9879 21.987 14.3619 21.934 15.5349C21.881 16.7049 21.694 17.5049 21.422 18.2049C21.146 18.939 20.7133 19.6041 20.154 20.1539C19.604 20.7139 18.939 21.1459 18.206 21.4219C17.506 21.6939 16.706 21.8799 15.536 21.9339C14.362 21.9879 13.988 21.9999 11 21.9999C8.012 21.9999 7.638 21.9869 6.465 21.9339C5.295 21.8809 4.495 21.6939 3.795 21.4219C3.06092 21.1459 2.39582 20.7132 1.846 20.1539C1.28638 19.6046 0.853315 18.9398 0.577 18.2059C0.306 17.5059 0.12 16.7059 0.066 15.5359C0.012 14.3609 0 13.9869 0 10.9999C0 8.01194 0.013 7.63794 0.066 6.46594C0.119 5.29394 0.306 4.49394 0.577 3.79394C0.853723 3.06002 1.28712 2.39525 1.847 1.84594C2.39604 1.28644 3.06047 0.853382 3.794 0.576939C4.494 0.305939 5.294 0.119939 6.464 0.0659389H6.465ZM15.445 2.04594C14.285 1.99294 13.937 1.98194 11 1.98194C8.063 1.98194 7.715 1.99294 6.555 2.04594C5.482 2.09494 4.9 2.27394 4.512 2.42494C3.999 2.62494 3.632 2.86194 3.247 3.24694C2.88205 3.60199 2.60118 4.03422 2.425 4.51194C2.274 4.89994 2.095 5.48194 2.046 6.55494C1.993 7.71494 1.982 8.06294 1.982 10.9999C1.982 13.9369 1.993 14.2849 2.046 15.4449C2.095 16.5179 2.274 17.0999 2.425 17.4879C2.601 17.9649 2.882 18.3979 3.247 18.7529C3.602 19.1179 4.035 19.3989 4.512 19.5749C4.9 19.7259 5.482 19.9049 6.555 19.9539C7.715 20.0069 8.062 20.0179 11 20.0179C13.938 20.0179 14.285 20.0069 15.445 19.9539C16.518 19.9049 17.1 19.7259 17.488 19.5749C18.001 19.3749 18.368 19.1379 18.753 18.7529C19.118 18.3979 19.399 17.9649 19.575 17.4879C19.726 17.0999 19.905 16.5179 19.954 15.4449C20.007 14.2849 20.018 13.9369 20.018 10.9999C20.018 8.06294 20.007 7.71494 19.954 6.55494C19.905 5.48194 19.726 4.89994 19.575 4.51194C19.375 3.99894 19.138 3.63194 18.753 3.24694C18.3979 2.88201 17.9657 2.60115 17.488 2.42494C17.1 2.27394 16.518 2.09494 15.445 2.04594ZM9.595 14.3909C10.3797 14.7176 11.2534 14.7617 12.0669 14.5157C12.8805 14.2697 13.5834 13.7489 14.0556 13.0422C14.5278 12.3355 14.7401 11.4868 14.656 10.641C14.572 9.79528 14.197 9.00491 13.595 8.40494C13.2112 8.02141 12.7472 7.72775 12.2363 7.54509C11.7255 7.36242 11.1804 7.2953 10.6405 7.34855C10.1006 7.40181 9.57915 7.57412 9.1138 7.85307C8.64845 8.13202 8.25074 8.51068 7.9493 8.96179C7.64786 9.4129 7.45019 9.92523 7.37052 10.4619C7.29084 10.9986 7.33115 11.5462 7.48854 12.0655C7.64593 12.5847 7.91648 13.0625 8.28072 13.4647C8.64496 13.8668 9.09382 14.1831 9.595 14.3909ZM7.002 7.00194C7.52702 6.47691 8.15032 6.06044 8.8363 5.7763C9.52228 5.49216 10.2575 5.34591 11 5.34591C11.7425 5.34591 12.4777 5.49216 13.1637 5.7763C13.8497 6.06044 14.473 6.47691 14.998 7.00194C15.523 7.52696 15.9395 8.15026 16.2236 8.83624C16.5078 9.52221 16.654 10.2574 16.654 10.9999C16.654 11.7424 16.5078 12.4777 16.2236 13.1636C15.9395 13.8496 15.523 14.4729 14.998 14.9979C13.9377 16.0583 12.4995 16.654 11 16.654C9.50046 16.654 8.06234 16.0583 7.002 14.9979C5.94166 13.9376 5.34597 12.4995 5.34597 10.9999C5.34597 9.5004 5.94166 8.06227 7.002 7.00194ZM17.908 6.18794C18.0381 6.06521 18.1423 5.91762 18.2143 5.75391C18.2863 5.59021 18.3248 5.41371 18.3274 5.23487C18.33 5.05603 18.2967 4.87849 18.2295 4.71275C18.1622 4.54701 18.0624 4.39645 17.936 4.26998C17.8095 4.14351 17.6589 4.0437 17.4932 3.97646C17.3275 3.90922 17.1499 3.87591 16.9711 3.87852C16.7922 3.88113 16.6157 3.91959 16.452 3.99164C16.2883 4.06368 16.1407 4.16783 16.018 4.29794C15.7793 4.55097 15.6486 4.88706 15.6537 5.23487C15.6588 5.58268 15.7992 5.91482 16.0452 6.16078C16.2911 6.40675 16.6233 6.54717 16.9711 6.55224C17.3189 6.55731 17.655 6.42663 17.908 6.18794Z" fill="#F21732"/>
</svg>
