<svg width="16" height="16" viewBox="0 0 16 16" fill="none" xmlns="http://www.w3.org/2000/svg">
<path d="M15.1181 5.56251L10.4346 4.8418L8.34096 0.347663C8.28378 0.224617 8.1897 0.125007 8.07349 0.0644603C7.78204 -0.0878834 7.42788 0.0390697 7.28215 0.347663L5.18851 4.8418L0.505028 5.56251C0.375904 5.58204 0.257849 5.64649 0.167462 5.74415C0.0581905 5.86307 -0.00202338 6.02305 5.19185e-05 6.18896C0.00212721 6.35486 0.0663218 6.5131 0.17853 6.62891L3.56709 10.127L2.76653 15.0664C2.74776 15.1813 2.75976 15.2995 2.80119 15.4075C2.84262 15.5156 2.91181 15.6092 3.00092 15.6777C3.09003 15.7462 3.19549 15.7869 3.30534 15.7952C3.41519 15.8035 3.52504 15.7791 3.62243 15.7246L7.81156 13.3926L12.0007 15.7246C12.1151 15.7891 12.2479 15.8106 12.3751 15.7871C12.6961 15.7285 12.9119 15.4063 12.8566 15.0664L12.056 10.127L15.4446 6.62891C15.5368 6.53321 15.5977 6.40821 15.6161 6.27149C15.6659 5.92969 15.4409 5.61329 15.1181 5.56251Z" fill="#FFC700"/>
</svg>
