<svg width="141" height="141" viewBox="0 0 141 141" fill="none" xmlns="http://www.w3.org/2000/svg">
<circle cx="70.5" cy="70.5" r="70.5" fill="#D9E4E7" fill-opacity="0.31"/>
<path d="M101.175 52.9713L83.8436 44.3054C83.4423 44.1046 82.9997 44 82.5509 44C82.1022 44 81.6596 44.1046 81.2583 44.3054L65.2205 52.3271L49.1799 44.3054C48.7394 44.0853 48.2499 43.9814 47.758 44.0037C47.266 44.026 46.7879 44.1736 46.3691 44.4327C45.9503 44.6917 45.6047 45.0535 45.3651 45.4837C45.1254 45.9139 44.9998 46.3983 45 46.8907V84.4431C45 85.5379 45.6182 86.5373 46.5974 87.0284L63.9293 95.6943C64.3306 95.8951 64.7732 95.9997 65.222 95.9997C65.6707 95.9997 66.1133 95.8951 66.5146 95.6943L82.5524 87.6726L98.593 95.6914C99.0323 95.9136 99.5214 96.019 100.013 95.9972C100.505 95.9754 100.983 95.8274 101.401 95.5672C102.253 95.0386 102.773 94.1113 102.773 93.109V55.5566C102.773 54.4618 102.155 53.4624 101.175 52.9713ZM68.1092 57.3418L79.6637 51.5645V82.6579L68.1092 88.4352V57.3418ZM50.7773 51.5645L62.3319 57.3418V88.4352L50.7773 82.6579V51.5645ZM96.9956 88.4352L85.441 82.6579V51.5645L96.9956 57.3418V88.4352Z" fill="#F21732"/>
</svg>
