<svg width="60" height="60" viewBox="0 0 60 60" fill="none" xmlns="http://www.w3.org/2000/svg">
<path d="M27.6783 27.8121L30.1239 25.5715C30.7926 24.9576 31.2626 24.158 31.4735 23.2751C31.6845 22.3922 31.6268 21.4665 31.3079 20.6166L30.265 17.8318C29.8754 16.7921 29.1041 15.9401 28.1082 15.4494C27.1122 14.9586 25.9667 14.866 24.9049 15.1904C20.9974 16.3859 17.994 20.0178 18.9185 24.3305C19.5265 27.1677 20.69 30.729 22.8942 34.518C25.103 38.3162 27.6259 41.1215 29.7891 43.0934C33.0544 46.065 37.7224 45.3226 40.7258 42.5219C41.5309 41.7712 42.0194 40.7418 42.0918 39.6434C42.1641 38.545 41.8149 37.4604 41.1152 36.6106L39.2025 34.288C38.6256 33.5857 37.8517 33.072 36.9805 32.8131C36.1093 32.5542 35.1805 32.5619 34.3136 32.8353L31.1531 33.8304C30.3369 32.988 29.6216 32.0534 29.0218 31.0455C28.4428 30.0262 27.9916 28.9395 27.6783 27.8098V27.8121Z" fill="#F21732"/>
<circle cx="30" cy="30" r="29" stroke="#F21732" stroke-width="2"/>
</svg>
