<svg width="141" height="141" viewBox="0 0 141 141" fill="none" xmlns="http://www.w3.org/2000/svg">
<circle cx="70.5" cy="70.5" r="70.5" fill="#D9E4E7" fill-opacity="0.31"/>
<path d="M71 77C72.7875 77 74.3182 76.363 75.5922 75.089C76.8641 73.8172 77.5 72.2875 77.5 70.5C77.5 68.7125 76.8641 67.1817 75.5922 65.9077C74.3182 64.6359 72.7875 64 71 64C69.2125 64 67.6828 64.6359 66.411 65.9077C65.137 67.1817 64.5 68.7125 64.5 70.5C64.5 72.2875 65.137 73.8172 66.411 75.089C67.6828 76.363 69.2125 77 71 77ZM58 90H84V88.1312C84 86.8312 83.6479 85.6396 82.9437 84.5563C82.2396 83.4729 81.2646 82.6604 80.0187 82.1187C78.6104 81.5229 77.162 81.0625 75.6735 80.7375C74.1828 80.4125 72.625 80.25 71 80.25C69.375 80.25 67.8172 80.4125 66.3265 80.7375C64.838 81.0625 63.3896 81.5229 61.9812 82.1187C60.7354 82.6604 59.7604 83.4729 59.0562 84.5563C58.3521 85.6396 58 86.8312 58 88.1312V90ZM90.5 103H51.5C49.7125 103 48.1828 102.364 46.911 101.092C45.637 99.8182 45 98.2875 45 96.5V44.5C45 42.7125 45.637 41.1817 46.911 39.9077C48.1828 38.6359 49.7125 38 51.5 38H74.8187C75.6854 38 76.512 38.1625 77.2985 38.4875C78.0828 38.8125 78.7729 39.2729 79.3687 39.8688L95.1312 55.6313C95.727 56.2271 96.1875 56.9172 96.5125 57.7015C96.8375 58.488 97 59.3146 97 60.1812V96.5C97 98.2875 96.364 99.8182 95.0922 101.092C93.8182 102.364 92.2875 103 90.5 103Z" fill="#F21732"/>
</svg>
