<svg width="27" height="26" viewBox="0 0 27 26" fill="none" xmlns="http://www.w3.org/2000/svg">
<path d="M13.1113 25.13C5.87082 25.13 0 19.5038 0 12.565C0 5.6262 5.87082 -1.90735e-06 13.1113 -1.90735e-06C20.3518 -1.90735e-06 26.2226 5.6262 26.2226 12.565C26.2226 19.5038 20.3518 25.13 13.1113 25.13ZM13.1113 2.13156C7.10001 2.13156 2.22424 6.80417 2.22424 12.565C2.22424 18.3258 7.10001 22.9984 13.1113 22.9984C19.1226 22.9984 23.9984 18.3258 23.9984 12.565C23.9984 6.80417 19.1226 2.13156 13.1113 2.13156Z" fill="#F21732"/>
<path d="M11.7065 17.5012C11.7065 17.1442 11.8545 16.8018 12.118 16.5493C12.3814 16.2968 12.7387 16.155 13.1113 16.155C13.4839 16.155 13.8412 16.2968 14.1046 16.5493C14.3681 16.8018 14.5161 17.1442 14.5161 17.5012C14.5161 17.8583 14.3681 18.2007 14.1046 18.4532C13.8412 18.7057 13.4839 18.8475 13.1113 18.8475C12.7387 18.8475 12.3814 18.7057 12.118 18.4532C11.8545 18.2007 11.7065 17.8583 11.7065 17.5012ZM13.8137 14.36H12.4089C12.2801 14.36 12.1748 14.259 12.1748 14.1356V6.50687C12.1748 6.38346 12.2801 6.2825 12.4089 6.2825H13.8137C13.9425 6.2825 14.0478 6.38346 14.0478 6.50687V14.1356C14.0478 14.259 13.9425 14.36 13.8137 14.36Z" fill="#F21732"/>
</svg>
