<svg width="141" height="141" viewBox="0 0 141 141" fill="none" xmlns="http://www.w3.org/2000/svg">
<circle cx="70.5" cy="70.5" r="70.5" fill="#D9E4E7" fill-opacity="0.31"/>
<path d="M95.2222 49H48.2222C46.8372 49 45.5089 49.5502 44.5296 50.5296C43.5502 51.5089 43 52.8372 43 54.2222V90.7778C43 92.1628 43.5502 93.4911 44.5296 94.4704C45.5089 95.4498 46.8372 96 48.2222 96H95.2222C96.6072 96 97.9355 95.4498 98.9149 94.4704C99.8943 93.4911 100.444 92.1628 100.444 90.7778V54.2222C100.444 52.8372 99.8943 51.5089 98.9149 50.5296C97.9355 49.5502 96.6072 49 95.2222 49ZM95.2222 90.7778H48.2222V54.2222H74.3333V64.6667H95.2222V90.7778Z" fill="#F21732"/>
</svg>
