<svg width="36" height="23" viewBox="0 0 36 23" fill="none" xmlns="http://www.w3.org/2000/svg">
<path fill-rule="evenodd" clip-rule="evenodd" d="M0 11.4919C0 11.1533 0.134509 10.8286 0.373938 10.5892C0.613366 10.3497 0.938101 10.2152 1.2767 10.2152H31.389L23.3535 2.18222C23.1137 1.94249 22.9791 1.61735 22.9791 1.27832C22.9791 0.939285 23.1137 0.61414 23.3535 0.37441C23.5932 0.134679 23.9183 7.98783e-09 24.2574 0C24.5964 -7.98783e-09 24.9216 0.134679 25.1613 0.37441L35.3749 10.588C35.4938 10.7066 35.5881 10.8475 35.6525 11.0026C35.7169 11.1577 35.75 11.324 35.75 11.4919C35.75 11.6599 35.7169 11.8262 35.6525 11.9813C35.5881 12.1364 35.4938 12.2773 35.3749 12.3958L25.1613 22.6095C24.9216 22.8492 24.5964 22.9839 24.2574 22.9839C23.9183 22.9839 23.5932 22.8492 23.3535 22.6095C23.1137 22.3697 22.9791 22.0446 22.9791 21.7056C22.9791 21.3665 23.1137 21.0414 23.3535 20.8017L31.389 12.7686H1.2767C0.938101 12.7686 0.613366 12.6341 0.373938 12.3947C0.134509 12.1553 0 11.8305 0 11.4919Z" fill="white"/>
</svg>
