<svg width="32" height="32" viewBox="0 0 32 32" fill="none" xmlns="http://www.w3.org/2000/svg">
<path d="M31.4286 29.9317L29.928 31.4289L19.6614 21.1662L19.3505 20.8554L19.0025 21.124C17.0063 22.6642 14.5699 23.4998 11.9999 23.4998C8.92452 23.4998 6.03991 22.3045 3.86985 20.1306L3.86954 20.1303C1.69914 17.9599 0.5 15.071 0.5 11.9999C0.5 8.92446 1.69534 6.03984 3.86923 3.86979L3.86954 3.86948C6.03993 1.69908 8.92881 0.499939 11.9999 0.499939C15.0715 0.499939 17.9601 1.69534 20.13 3.86916C22.301 6.04394 23.4999 8.92509 23.4999 11.9999C23.4999 14.5699 22.6642 17.0102 21.1204 19.0059L20.8511 19.3541L21.1624 19.6654L31.4286 29.9317ZM30.051 31.9691L30.0534 31.9749L30.051 31.9691ZM18.6891 18.6898L18.6895 18.6894C20.4753 16.9036 21.4599 14.5244 21.4599 11.9999C21.4599 9.47504 20.4751 7.10018 18.6899 5.31078C16.9035 3.52019 14.5239 2.53993 11.9999 2.53993C9.4751 2.53993 7.10025 3.52476 5.31084 5.30994L5.31042 5.31036C3.5246 7.09619 2.53999 9.47538 2.53999 11.9999C2.53999 14.5247 3.52482 16.8996 5.31 18.689L5.31084 18.6898C7.10025 20.475 9.4751 21.4598 11.9999 21.4598C14.5248 21.4598 16.8997 20.475 18.6891 18.6898Z" fill="white" stroke="white"/>
</svg>
