<svg width="30" height="31" viewBox="0 0 30 31" fill="none" xmlns="http://www.w3.org/2000/svg">
<path d="M1.54026 23.1057C0.941798 23.1057 0.505698 22.9105 0.231965 22.5202C-0.0407267 22.1299 -0.0729919 21.6485 0.13517 21.0761L4.62366 9.05474C4.77978 8.6124 5.07901 8.24135 5.52136 7.9416C5.9637 7.64289 6.41906 7.49353 6.88742 7.49353C7.32977 7.49353 7.77888 7.64289 8.23475 7.9416C8.68958 8.24135 8.99506 8.6124 9.15118 9.05474L13.6787 21.1151C13.8869 21.6616 13.8546 22.1299 13.5819 22.5202C13.3082 22.9105 12.8721 23.1057 12.2736 23.1057C11.9874 23.1057 11.7079 23.0146 11.4352 22.8325C11.1615 22.6503 10.9726 22.4161 10.8685 22.1299L9.89276 19.3588H3.88208L2.98439 22.0909C2.8803 22.3771 2.69192 22.6175 2.41923 22.8122C2.14549 23.0078 1.85251 23.1057 1.54026 23.1057ZM4.81881 16.7047H8.87797L7.00451 10.8501H6.77033L4.81881 16.7047ZM19.5333 23.1057C19.0129 23.1057 18.5637 22.9168 18.1859 22.539C17.8092 22.1622 17.6208 21.7136 17.6208 21.1932C17.6208 20.907 17.6858 20.5749 17.8159 20.1971C17.946 19.8204 18.1021 19.5279 18.2843 19.3197L25.5049 10.3037H19.3381C18.9478 10.3037 18.6163 10.1668 18.3436 9.89312C18.0699 9.62042 17.933 9.28893 17.933 8.89862C17.933 8.50832 18.0699 8.1763 18.3436 7.90257C18.6163 7.62988 18.9478 7.49353 19.3381 7.49353H27.0271C27.5475 7.49353 27.9966 7.68192 28.3744 8.05869C28.7512 8.4365 28.9396 8.89862 28.9396 9.44505C28.9396 9.73127 28.8813 10.0565 28.7647 10.4208C28.6471 10.7851 28.4972 11.0713 28.3151 11.2795L21.1335 20.2955H27.6125C28.0028 20.2955 28.3349 20.4318 28.6086 20.7045C28.8813 20.9783 29.0176 21.3103 29.0176 21.7006C29.0176 22.0909 28.8813 22.4229 28.6086 22.6966C28.3349 22.9693 28.0028 23.1057 27.6125 23.1057H19.5333Z" fill="#F21732"/>
<path d="M12.1565 4.3714C11.7922 4.3714 11.545 4.21528 11.4149 3.90304C11.2848 3.59079 11.3499 3.30457 11.6101 3.04437L14.4203 0.234182C14.4723 0.182141 14.6545 0.104081 14.9667 0C15.0187 0 15.2009 0.0780605 15.5131 0.234182L18.3233 3.04437C18.5835 3.30457 18.6486 3.59079 18.5185 3.90304C18.3884 4.21528 18.1412 4.3714 17.7769 4.3714H12.1565Z" fill="#F21732"/>
<path d="M14.9667 30.6C14.9147 30.6 14.7325 30.522 14.4203 30.3659L11.6101 27.5557C11.3499 27.2955 11.2848 27.0092 11.4149 26.697C11.545 26.3848 11.7922 26.2286 12.1565 26.2286H17.7769C18.1412 26.2286 18.3884 26.3848 18.5185 26.697C18.6486 27.0092 18.5835 27.2955 18.3233 27.5557L15.5131 30.3659C15.4611 30.4179 15.2789 30.496 14.9667 30.6Z" fill="#F21732"/>
</svg>
