<svg width="23" height="19" viewBox="0 0 23 19" fill="none" xmlns="http://www.w3.org/2000/svg">
<path d="M22.706 2.18946C21.871 2.55946 20.974 2.80946 20.031 2.92246C21.004 2.34025 21.7319 1.42392 22.079 0.344457C21.1648 0.887447 20.1643 1.26965 19.121 1.47446C18.4194 0.725322 17.4901 0.228783 16.4773 0.0619314C15.4646 -0.104921 14.4251 0.0672488 13.5202 0.55171C12.6154 1.03617 11.8958 1.80582 11.4732 2.74116C11.0505 3.6765 10.9485 4.72521 11.183 5.72446C9.33069 5.63145 7.51863 5.15001 5.86442 4.31136C4.21022 3.47272 2.75084 2.29562 1.581 0.856457C1.181 1.54646 0.951 2.34646 0.951 3.19846C0.950554 3.96545 1.13943 4.7207 1.50088 5.39719C1.86232 6.07368 2.38516 6.65049 3.023 7.07646C2.28328 7.05292 1.55987 6.85304 0.913 6.49346V6.55346C0.912925 7.6292 1.28503 8.67183 1.96618 9.50445C2.64733 10.3371 3.59557 10.9084 4.65 11.1215C3.96378 11.3072 3.24434 11.3345 2.546 11.2015C2.8435 12.1271 3.423 12.9365 4.20337 13.5164C4.98374 14.0963 5.92592 14.4176 6.898 14.4355C5.24783 15.7309 3.20989 16.4335 1.112 16.4305C0.740381 16.4306 0.369076 16.4089 0 16.3655C2.12948 17.7346 4.60834 18.4613 7.14 18.4585C15.71 18.4585 20.395 11.3605 20.395 5.20446C20.395 5.00446 20.39 4.80246 20.381 4.60246C21.2923 3.94343 22.0789 3.12735 22.704 2.19246L22.706 2.18946Z" fill="#F21732"/>
</svg>
